<?xml version="1.0" encoding="UTF-8" standalone="no"?>
<!DOCTYPE svg PUBLIC "-//W3C//DTD SVG 20010904//EN"
              "http://www.w3.org/TR/2001/REC-SVG-20010904/DTD/svg10.dtd">

<svg xmlns="http://www.w3.org/2000/svg"
     width="76" height="156"
     viewBox="0 0 78 154">
  <path id="Path"
        fill="none" stroke="black" stroke-width="1"
        d="M 10.50,49.00
           C 10.50,49.00 26.48,49.00 26.48,49.00
             26.48,49.00 28.27,59.78 28.27,59.78
             29.52,56.00 31.69,53.09 34.77,51.06
             37.84,49.02 41.57,48.00 45.95,48.00
             52.30,48.00 57.13,50.15 60.42,54.44
             63.72,58.73 65.38,65.01 65.38,73.27
             65.38,73.27 65.38,117.00 65.38,117.00
             65.38,117.00 47.61,117.00 47.61,117.00
             47.61,117.00 47.61,76.14 47.61,76.14
             47.61,71.42 46.93,67.98 45.56,65.80
             44.20,63.62 42.09,62.53 39.25,62.53
             35.79,62.53 33.09,63.97 31.16,66.84
             29.23,69.72 28.27,73.64 28.27,78.59
             28.27,78.59 28.27,117.00 28.27,117.00
             28.27,117.00 10.50,117.00 10.50,117.00
             10.50,117.00 10.50,49.00 10.50,49.00 Z" />
</svg>
