<?xml version="1.0" encoding="UTF-8" standalone="no"?>
<!DOCTYPE svg PUBLIC "-//W3C//DTD SVG 20010904//EN"
              "http://www.w3.org/TR/2001/REC-SVG-20010904/DTD/svg10.dtd">

<svg xmlns="http://www.w3.org/2000/svg"
     width="2.72in" height="0.5in"
     viewBox="0 0 816 150">
  <path id="Path"
        fill="none" stroke="black" stroke-width="1"
        d="M 10.50,49.00
           C 10.50,49.00 26.48,49.00 26.48,49.00
             26.48,49.00 28.27,59.78 28.27,59.78
             29.52,56.00 31.69,53.09 34.77,51.06
             37.84,49.02 41.57,48.00 45.95,48.00
             52.30,48.00 57.13,50.15 60.42,54.44
             63.72,58.73 65.38,65.01 65.38,73.27
             65.38,73.27 65.38,117.00 65.38,117.00
             65.38,117.00 47.61,117.00 47.61,117.00
             47.61,117.00 47.61,76.14 47.61,76.14
             47.61,71.42 46.93,67.98 45.56,65.80
             44.20,63.62 42.09,62.53 39.25,62.53
             35.79,62.53 33.09,63.97 31.16,66.84
             29.23,69.72 28.27,73.64 28.27,78.59
             28.27,78.59 28.27,117.00 28.27,117.00
             28.27,117.00 10.50,117.00 10.50,117.00
             10.50,117.00 10.50,49.00 10.50,49.00 Z
           M 122.02,118.00
           C 110.25,118.00 101.31,115.04 95.19,109.11
             89.06,103.17 86.00,94.59 86.00,83.36
             86.00,76.26 87.26,70.06 89.78,64.77
             92.31,59.46 96.09,55.34 101.11,52.41
             106.14,49.47 112.44,48.00 120.00,48.00
             126.23,48.00 131.62,49.39 136.17,52.17
             140.73,54.95 144.27,58.80 146.77,63.75
             149.27,68.70 150.52,74.45 150.52,81.02
             150.52,81.02 150.52,88.00 150.52,88.00
             150.52,88.00 104.19,88.00 104.19,88.00
             104.19,98.31 110.41,103.47 122.88,103.47
             131.05,103.47 139.31,101.12 147.66,96.42
             147.66,96.42 147.66,112.81 147.66,112.81
             139.35,116.27 130.80,118.00 122.02,118.00 Z
           M 132.52,75.00
           C 132.52,70.72 131.35,67.48 129.03,65.30
             126.72,63.10 123.41,62.00 119.09,62.00
             114.70,62.00 111.25,63.12 108.77,65.38
             106.29,67.62 104.82,70.84 104.38,75.00
             104.38,75.00 132.52,75.00 132.52,75.00 Z
           M 199.59,118.00
           C 193.12,118.00 187.52,116.59 182.78,113.75
             178.04,110.91 174.39,106.87 171.83,101.64
             169.27,96.40 167.98,90.21 167.98,83.06
             167.98,75.92 169.27,69.72 171.86,64.47
             174.44,59.21 178.12,55.15 182.91,52.30
             187.69,49.43 193.35,48.00 199.91,48.00
             206.38,48.00 211.95,49.40 216.62,52.20
             221.30,55.00 224.91,58.99 227.45,64.19
             230.00,69.39 231.28,75.56 231.28,82.70
             231.28,89.96 229.99,96.23 227.41,101.52
             224.82,106.79 221.16,110.86 216.44,113.72
             211.72,116.57 206.10,118.00 199.59,118.00 Z
           M 199.66,103.47
           C 203.85,103.47 207.19,101.63 209.67,97.95
             212.15,94.27 213.39,89.28 213.39,83.00
             213.39,76.69 212.15,71.70 209.67,68.03
             207.19,64.37 203.85,62.53 199.66,62.53
             195.43,62.53 192.07,64.38 189.58,68.06
             187.10,71.74 185.86,76.72 185.86,83.00
             185.86,89.28 187.10,94.27 189.58,97.95
             192.07,101.63 195.43,103.47 199.66,103.47 Z
           M 293.47,117.00
           C 286.76,117.00 281.49,116.32 277.67,114.97
             273.85,113.61 271.15,111.26 269.58,107.94
             268.02,104.61 267.23,100.04 267.23,94.23
             267.23,94.23 267.23,63.00 267.23,63.00
             267.23,63.00 249.78,63.00 249.78,63.00
             249.78,63.00 249.78,49.00 249.78,49.00
             249.78,49.00 267.23,49.00 267.23,49.00
             267.23,49.00 267.23,30.33 267.23,30.33
             267.23,30.33 285.11,22.39 285.11,22.39
             285.11,22.39 285.11,49.00 285.11,49.00
             285.11,49.00 308.48,49.00 308.48,49.00
             308.48,49.00 308.48,63.00 308.48,63.00
             308.48,63.00 285.11,63.00 285.11,63.00
             285.11,63.00 285.11,94.69 285.11,94.69
             285.11,97.62 285.87,99.73 287.39,101.05
             288.92,102.35 291.38,103.00 294.77,103.00
             294.77,103.00 308.48,103.00 308.48,103.00
             308.48,103.00 308.48,117.00 308.48,117.00
             308.48,117.00 293.47,117.00 293.47,117.00 Z
           M 365.02,118.00
           C 353.25,118.00 344.31,115.04 338.19,109.11
             332.06,103.17 329.00,94.59 329.00,83.36
             329.00,76.26 330.26,70.06 332.78,64.77
             335.31,59.46 339.09,55.34 344.11,52.41
             349.14,49.47 355.44,48.00 363.00,48.00
             369.23,48.00 374.62,49.39 379.17,52.17
             383.73,54.95 387.27,58.80 389.77,63.75
             392.27,68.70 393.52,74.45 393.52,81.02
             393.52,81.02 393.52,88.00 393.52,88.00
             393.52,88.00 347.19,88.00 347.19,88.00
             347.19,98.31 353.41,103.47 365.88,103.47
             374.05,103.47 382.31,101.12 390.66,96.42
             390.66,96.42 390.66,112.81 390.66,112.81
             382.35,116.27 373.80,118.00 365.02,118.00 Z
           M 375.52,75.00
           C 375.52,70.72 374.35,67.48 372.03,65.30
             369.72,63.10 366.41,62.00 362.09,62.00
             357.70,62.00 354.25,63.12 351.77,65.38
             349.29,67.62 347.82,70.84 347.38,75.00
             347.38,75.00 375.52,75.00 375.52,75.00 Z
           M 415.50,49.00
           C 415.50,49.00 431.48,49.00 431.48,49.00
             431.48,49.00 433.27,59.78 433.27,59.78
             434.52,56.00 436.69,53.09 439.77,51.06
             442.84,49.02 446.57,48.00 450.95,48.00
             457.30,48.00 462.13,50.15 465.42,54.44
             468.72,58.73 470.38,65.01 470.38,73.27
             470.38,73.27 470.38,117.00 470.38,117.00
             470.38,117.00 452.61,117.00 452.61,117.00
             452.61,117.00 452.61,76.14 452.61,76.14
             452.61,71.42 451.93,67.98 450.56,65.80
             449.20,63.62 447.09,62.53 444.25,62.53
             440.79,62.53 438.09,63.97 436.16,66.84
             434.23,69.72 433.27,73.64 433.27,78.59
             433.27,78.59 433.27,117.00 433.27,117.00
             433.27,117.00 415.50,117.00 415.50,117.00
             415.50,117.00 415.50,49.00 415.50,49.00 Z
           M 513.53,40.00
           C 512.31,40.00 511.70,39.39 511.70,38.16
             511.70,38.16 511.70,20.84 511.70,20.84
             511.70,19.62 512.31,19.00 513.53,19.00
             513.53,19.00 527.75,19.00 527.75,19.00
             528.97,19.00 529.58,19.62 529.58,20.84
             529.58,20.84 529.58,38.16 529.58,38.16
             529.58,39.39 528.97,40.00 527.75,40.00
             527.75,40.00 513.53,40.00 513.53,40.00 Z
           M 535.56,117.00
           C 527.09,117.00 521.00,114.83 517.28,110.48
             513.56,106.14 511.70,99.05 511.70,89.20
             511.70,89.20 511.70,63.00 511.70,63.00
             511.70,63.00 497.23,63.00 497.23,63.00
             497.23,63.00 497.23,49.00 497.23,49.00
             497.23,49.00 529.58,49.00 529.58,49.00
             529.58,49.00 529.58,88.59 529.58,88.59
             529.58,93.75 530.42,97.45 532.11,99.67
             533.80,101.89 536.61,103.00 540.56,103.00
             540.56,103.00 554.84,103.00 554.84,103.00
             554.84,103.00 554.84,117.00 554.84,117.00
             554.84,117.00 535.56,117.00 535.56,117.00 Z
           M 617.47,117.00
           C 610.76,117.00 605.49,116.32 601.67,114.97
             597.85,113.61 595.15,111.26 593.58,107.94
             592.02,104.61 591.23,100.04 591.23,94.23
             591.23,94.23 591.23,63.00 591.23,63.00
             591.23,63.00 573.78,63.00 573.78,63.00
             573.78,63.00 573.78,49.00 573.78,49.00
             573.78,49.00 591.23,49.00 591.23,49.00
             591.23,49.00 591.23,30.33 591.23,30.33
             591.23,30.33 609.11,22.39 609.11,22.39
             609.11,22.39 609.11,49.00 609.11,49.00
             609.11,49.00 632.48,49.00 632.48,49.00
             632.48,49.00 632.48,63.00 632.48,63.00
             632.48,63.00 609.11,63.00 609.11,63.00
             609.11,63.00 609.11,94.69 609.11,94.69
             609.11,97.62 609.87,99.73 611.39,101.05
             612.92,102.35 615.38,103.00 618.77,103.00
             618.77,103.00 632.48,103.00 632.48,103.00
             632.48,103.00 632.48,117.00 632.48,117.00
             632.48,117.00 617.47,117.00 617.47,117.00 Z
           M 689.02,118.00
           C 677.25,118.00 668.31,115.04 662.19,109.11
             656.06,103.17 653.00,94.59 653.00,83.36
             653.00,76.26 654.26,70.06 656.78,64.77
             659.31,59.46 663.09,55.34 668.11,52.41
             673.14,49.47 679.44,48.00 687.00,48.00
             693.23,48.00 698.62,49.39 703.17,52.17
             707.73,54.95 711.27,58.80 713.77,63.75
             716.27,68.70 717.52,74.45 717.52,81.02
             717.52,81.02 717.52,88.00 717.52,88.00
             717.52,88.00 671.19,88.00 671.19,88.00
             671.19,98.31 677.41,103.47 689.88,103.47
             698.05,103.47 706.31,101.12 714.66,96.42
             714.66,96.42 714.66,112.81 714.66,112.81
             706.35,116.27 697.80,118.00 689.02,118.00 Z
           M 699.52,75.00
           C 699.52,70.72 698.35,67.48 696.03,65.30
             693.72,63.10 690.41,62.00 686.09,62.00
             681.70,62.00 678.25,63.12 675.77,65.38
             673.29,67.62 671.82,70.84 671.38,75.00
             671.38,75.00 699.52,75.00 699.52,75.00 Z
           M 766.17,118.00
           C 758.48,118.00 749.96,116.59 740.59,113.75
             740.59,113.75 740.59,98.44 740.59,98.44
             748.61,102.81 756.65,105.00 764.70,105.00
             773.09,105.00 777.28,102.59 777.28,97.78
             777.28,95.65 776.28,93.93 774.28,92.62
             772.29,91.32 768.89,90.18 764.09,89.20
             764.09,89.20 759.16,88.12 759.16,88.12
             746.05,85.29 739.50,78.76 739.50,68.53
             739.50,61.99 741.93,56.93 746.78,53.36
             751.64,49.79 758.70,48.00 767.94,48.00
             771.52,48.00 775.07,48.31 778.59,48.92
             782.11,49.53 785.74,50.48 789.48,51.78
             789.48,51.78 789.48,67.48 789.48,67.48
             785.90,65.23 782.47,63.58 779.19,62.55
             775.91,61.52 772.55,61.00 769.09,61.00
             765.03,61.00 761.90,61.57 759.70,62.72
             757.50,63.87 756.41,65.40 756.41,67.33
             756.41,69.11 757.43,70.64 759.48,71.92
             761.54,73.20 764.86,74.36 769.47,75.39
             769.47,75.39 775.27,76.75 775.27,76.75
             781.77,78.25 786.55,80.66 789.58,83.97
             792.61,87.28 794.12,91.66 794.12,97.11
             794.12,111.04 784.80,118.00 766.17,118.00 Z" />
</svg>
